<?xml version="1.0" encoding="UTF-8" standalone="no"?>
<!-- Created with Inkscape (http://www.inkscape.org/) -->

<svg
   width="18.983419mm"
   height="6.6132908mm"
   viewBox="0 0 18.983419 6.6132909"
   version="1.1"
   id="svg1425"
   inkscape:version="1.1.1 (c3084ef, 2021-09-22)"
   sodipodi:docname="banner_dark.svg"
   xmlns:inkscape="http://www.inkscape.org/namespaces/inkscape"
   xmlns:sodipodi="http://sodipodi.sourceforge.net/DTD/sodipodi-0.dtd"
   xmlns="http://www.w3.org/2000/svg"
   xmlns:svg="http://www.w3.org/2000/svg">
  <sodipodi:namedview
     id="namedview1427"
     pagecolor="#ffffff"
     bordercolor="#666666"
     borderopacity="1.0"
     inkscape:pageshadow="2"
     inkscape:pageopacity="0.0"
     inkscape:pagecheckerboard="0"
     inkscape:document-units="mm"
     showgrid="false"
     inkscape:snap-global="false"
     fit-margin-top="0"
     fit-margin-left="0"
     fit-margin-right="0"
     fit-margin-bottom="0"
     inkscape:zoom="8.7635385"
     inkscape:cx="32.292892"
     inkscape:cy="35.88733"
     inkscape:window-width="1312"
     inkscape:window-height="1051"
     inkscape:window-x="0"
     inkscape:window-y="38"
     inkscape:window-maximized="0"
     inkscape:current-layer="layer1" />
  <defs
     id="defs1422" />
  <g
     inkscape:label="Layer 1"
     inkscape:groupmode="layer"
     id="layer1"
     transform="translate(-127.62694,-69.400833)">
    <path
       id="path5684-0-1-2"
       style="color:#000000;font-style:normal;font-variant:normal;font-weight:normal;font-stretch:normal;font-size:medium;line-height:normal;font-family:sans-serif;font-variant-ligatures:normal;font-variant-position:normal;font-variant-caps:normal;font-variant-numeric:normal;font-variant-alternates:normal;font-feature-settings:normal;text-indent:0;text-align:start;text-decoration:none;text-decoration-line:none;text-decoration-style:solid;text-decoration-color:#000000;letter-spacing:normal;word-spacing:normal;text-transform:none;writing-mode:lr-tb;direction:ltr;text-orientation:mixed;dominant-baseline:auto;baseline-shift:baseline;text-anchor:start;white-space:normal;shape-padding:0;clip-rule:nonzero;display:inline;overflow:visible;visibility:visible;isolation:auto;mix-blend-mode:normal;color-interpolation:sRGB;color-interpolation-filters:linearRGB;solid-color:#000000;solid-opacity:1;vector-effect:none;fill:#a251e9;fill-opacity:1;fill-rule:nonzero;stroke:none;stroke-width:0.20595;stroke-linecap:round;stroke-linejoin:round;stroke-miterlimit:4;stroke-dasharray:none;stroke-dashoffset:0;stroke-opacity:1;color-rendering:auto;image-rendering:auto;shape-rendering:auto;text-rendering:auto;enable-background:accumulate"
       d="m 130.13952,69.400945 v 5.16e-4 5.18e-4 c -0.78839,0.0057 -1.4687,0.467913 -1.79782,1.130679 0,0 -0.21136,0.500544 -0.21136,1.16582 v 0.665594 c -0.30169,0.156128 -0.5077,0.46908 -0.50333,0.833024 l 0.0372,1.747698 c 0.007,0.514503 0.42601,0.923425 0.94051,0.917255 l 3.16725,-0.03772 c 0.5145,-0.0048 0.92342,-0.426016 0.91725,-0.940509 l -0.0377,-1.747181 c -0.004,-0.340768 -0.19154,-0.63183 -0.46561,-0.790133 v -0.661974 c -0.002,3.83e-4 -0.004,6.48e-4 -0.007,10e-4 -2.2e-4,-0.66476 -0.21136,-1.164788 -0.21136,-1.164788 -0.33719,-0.668505 -1.03115,-1.126996 -1.82831,-1.119828 z m 0.007,0.805119 c 0.38069,-0.0029 0.71747,0.169362 0.94412,0.438216 0.001,-1.03e-4 0.002,-4.15e-4 0.003,-5.16e-4 0.40478,0.642147 0.28215,1.158584 0.28215,1.158584 0,0 0.003,0.002 0.006,0.0036 1.1e-4,7.1e-5 -1.1e-4,4.44e-4 0,5.19e-4 v 0.416512 l -2.44739,0.02894 v -0.437181 c 0,0 -0.12341,-0.519245 0.28525,-1.163754 0.22161,-0.267245 0.55116,-0.441553 0.92708,-0.444934 z m 0.0134,2.896981 c 0.31938,8.12e-4 0.57761,0.260943 0.57619,0.580327 -9.6e-4,0.219061 -0.12585,0.418084 -0.32246,0.514696 l 0.27647,0.782897 h -1.07642 l 0.28629,-0.784963 c -0.19592,-0.09797 -0.31976,-0.298209 -0.31936,-0.517282 7.1e-4,-0.319106 0.26019,-0.576318 0.57929,-0.575675 z" />
    <g
       id="g7853"
       transform="matrix(-0.63337986,-0.00180088,-0.00180088,0.63337986,213.90021,29.852972)">
      <path
         style="color:#000000;fill:#ffd000;stroke-linejoin:round;-inkscape-stroke:none"
         d="m 58.003906,134.36914 c -0.793526,0 -1.445312,0.65179 -1.445312,1.44531 0,0.79353 0.651786,1.44532 1.445312,1.44532 0.793526,0 1.445313,-0.65179 1.445313,-1.44532 0,-0.79352 -0.651787,-1.44531 -1.445313,-1.44531 z m 0,0.79883 c 0.361175,0 0.646485,0.28531 0.646485,0.64648 0,0.36118 -0.28531,0.64453 -0.646485,0.64453 -0.361174,0 -0.644531,-0.28335 -0.644531,-0.64453 0,-0.36117 0.283357,-0.64648 0.644531,-0.64648 z"
         id="path4182"
         transform="rotate(-39.010841)" />
      <path
         style="color:#000000;fill:#ffd000;stroke-linejoin:round;-inkscape-stroke:none"
         d="m 131.30469,69.236328 -0.65235,0.527344 2.04493,2.52539 a 0.4188589,0.4188589 0 0 0 0.58984,0.06055 l 1.31445,-1.064453 -0.52734,-0.65039 -0.99024,0.800781 z"
         id="path4385" />
      <g
         id="path6411">
        <path
           style="color:#000000;fill:#ffd000;stroke-width:0.765;stroke-linejoin:round;-inkscape-stroke:none"
           d="m 132.27994,71.012402 0.80337,-0.650806"
           id="path7844" />
        <path
           style="color:#000000;fill:#ffd000;stroke-linejoin:round;-inkscape-stroke:none"
           d="m 132.8418,70.064453 -0.80274,0.650391 0.48242,0.595703 0.80274,-0.652344 z"
           id="path7846" />
      </g>
    </g>
    <text
       xml:space="preserve"
       style="font-style:normal;font-weight:normal;font-size:3.17734px;line-height:0;font-family:sans-serif;fill:#ffffff;fill-opacity:1;stroke:none;stroke-width:0.2383"
       x="133.68817"
       y="71.058998"
       id="text8074"><tspan
         sodipodi:role="line"
         id="tspan8072"
         style="font-style:normal;font-variant:normal;font-weight:normal;font-stretch:normal;font-size:1.9064px;line-height:1.25;font-family:'Gill Sans';-inkscape-font-specification:'Gill Sans';stroke-width:0.2383;fill:#ffffff"
         x="133.68817"
         y="71.058998">Introducción a la</tspan><tspan
         style="font-style:normal;font-variant:normal;font-weight:normal;font-stretch:normal;font-size:3.30443px;line-height:0.55;font-family:'Gill Sans';-inkscape-font-specification:'Gill Sans';stroke-width:0.2383;fill:#ffffff"
         sodipodi:role="line"
         id="tspan12832"
         x="133.68817"
         y="73.509094">Seguridad</tspan><tspan
         sodipodi:role="line"
         style="font-style:normal;font-variant:normal;font-weight:normal;font-stretch:normal;font-size:2.22413px;line-height:1.25;font-family:'Gill Sans';-inkscape-font-specification:'Gill Sans';stroke-width:0.2383;fill:#ffffff"
         x="133.68817"
         y="75.537529"
         id="tspan10302"><tspan
   style="font-size:2.08115px;stroke-width:0.2383;fill:#ffffff"
   id="tspan19010">Computacional</tspan> </tspan></text>
  </g>
</svg>
